# xmcd
#
# Track frame offsets:
#	150
#	14280
#	30297
#	47234
#	60044
#	75032
#	88173
#	108072
#	124273
#	141559
#	153575
#	175148
#	194701
#	213337
#	230780
#	245793
#	268742
#	286946
#
# Disc length: 4587 seconds
#
# Revision: 0
# Processed by: cddbd v1.5.2PL0 Copyright (c) Steve Scherf et al.
# Submitted via: EZCDAudioConverter 1.3.4.1
#
DISCID=f911e912
DTITLE=Various Artist - Angola Soundtrack
DYEAR=1900
DGENRE=
TTITLE0=Mamukueno - Rei Do Palhetinho
TTITLE1=Os Kiezos - Comboio
TTITLE2=Jovens Do Prenda - Ilha Virgem
TTITLE3=Zé Da Lua - Ulungu Wami
TTITLE4=Os Bongos - Pachanga Maria
TTITLE5=Dimba Diangola - Tira Sapato
TTITLE6=Santos Júnior - N´Gui Banza Mama
TTITLE7=N´Goma Jazz - Mi Cantando Para Ti
TTITLE8=Ferreira Do Nascimento - Macongo Me Chiquita
TTITLE9=David Zé - Uma Amiga
TTITLE10=Jovens Do Prenda - Farra Na Madrugada
TTITLE11=Os Korimbas - Sémba Braguez
TTITLE12=Dimba Diangola - Fuma
TTITLE13=Alliace Makiadi - Passeio Por Luanda
TTITLE14=Os Bongos - Kazucuta
TTITLE15=Quim Manuel O Espirito Santo - Eme Lelu
TTITLE16=Africa Ritmos - Pica O Dedo
TTITLE17=Africa Show - Massanga Mama
EXTD=
EXTT0=
EXTT1=
EXTT2=
EXTT3=
EXTT4=
EXTT5=
EXTT6=
EXTT7=
EXTT8=
EXTT9=
EXTT10=
EXTT11=
EXTT12=
EXTT13=
EXTT14=
EXTT15=
EXTT16=
EXTT17=
PLAYORDER=
